<?xml version="1.0" encoding="UTF-8"?> <!-- Generator: Adobe Illustrator 24.0.2, SVG Export Plug-In . SVG Version: 6.00 Build 0) --> <svg xmlns="http://www.w3.org/2000/svg" xmlns:xlink="http://www.w3.org/1999/xlink" version="1.1" id="Layer_1" x="0px" y="0px" viewBox="0 0 228.2 58" style="enable-background:new 0 0 228.2 58;" xml:space="preserve"> <style type="text/css"> .st0{fill:#222222;} .st1{fill:#69CDCF;} .st2{fill:url(#SVGID_1_);} .st3{fill:url(#SVGID_2_);} .st4{fill:url(#SVGID_3_);} .st5{fill:url(#SVGID_4_);} </style> <g> <g> <path class="st0" d="M192.2,24.5v9c-1.8,2.4-4.2,3.2-6.7,3.2c-4.3,0-7.3-3.6-7.3-7.7c0-4.2,3-7.8,7.3-7.8 C188,21.2,190.4,22,192.2,24.5z"></path> <path class="st0" d="M217.9,2h-49.5c-4.8,0-8.7,3.9-8.7,8.7v27.9c6.6,0,11.7,5,11.7,11.4c0,2.2-0.6,4.2-1.7,6h48.2 c4.8,0,8.7-3.9,8.7-8.7V10.7C226.6,5.9,222.7,2,217.9,2z M200.4,43.7h-8.2v-2.2c-2.2,1.4-4.8,2.2-8,2.2c-7.8,0-14.1-6.5-14.1-14.6 c0-8.3,6.3-14.7,14.1-14.7c3.2,0,5.8,0.8,8,2.2v-2.2h8.2V43.7z M216,43.7h-8.2V14.3h8.2V43.7z"></path> <path class="st0" d="M26.8,33.8l14.7-15.6H27.8L13.2,33.9V2h-11v54h11v-7.8l6.1-6.4l10,14.2h13.8L26.8,33.8z"></path> <path class="st0" d="M93.9,23v-4.8H83.1V56h10.8V33.8c3.1-3.4,7.2-5.1,13.1-5.4V18.2C101.5,18.2,97.3,19.9,93.9,23z"></path> <path class="st0" d="M144.8,36.2c0-11.1-7.6-18.4-17.9-18.4c-11.3,0-19.1,8-19.1,19.1c0,10.7,7.8,19.1,19.4,19.1 c8.5,0,15.2-4.7,17.2-11.6h-11c-1.1,1.8-3.2,2.7-6.1,2.7c-5.7,0-8.5-3.3-9.3-7.5h26.5C144.7,38.5,144.8,37.7,144.8,36.2z M118.1,33.4c1-4,3.7-7,8.8-7c4.2,0,6.9,2.5,7.5,7H118.1z"></path> <path class="st0" d="M159.6,44.1c-3.4,0-6.2,2.6-6.2,5.9c0,3.5,2.8,6,6.2,6c3.5,0,6.2-2.6,6.2-6C165.8,46.7,163,44.1,159.6,44.1z"></path> </g> <g> <path class="st1" d="M67.8,20.3c-9.3-4.8-20.7-1.1-25.5,8.2c-4.8,9.3-1.1,20.7,8.2,25.5s20.7,1.1,25.5-8.2 C80.8,36.4,77.1,25.1,67.8,20.3z M67.6,41.4c-2.4,4.7-8.1,6.5-12.8,4.1c-4.7-2.4-6.5-8.1-4.1-12.8s8.1-6.5,12.8-4.1 C68.2,31.1,70,36.8,67.6,41.4z"></path> <linearGradient id="SVGID_1_" gradientUnits="userSpaceOnUse" x1="40.3214" y1="0.1963" x2="58.9572" y2="18.8322" gradientTransform="matrix(1 0 0 -1 0 56)"> <stop offset="0" style="stop-color:#69CDCF;stop-opacity:0"></stop> <stop offset="1" style="stop-color:#009EA5"></stop> </linearGradient> <path class="st2" d="M72.6,30.4c-1.2-1.2-2.5-2.1-3.9-2.8c-5.3-2.5-11.8-1.6-16.2,2.7c2.8-2.8,7.3-3.6,11-1.7 c4.7,2.4,6.5,8.1,4.1,12.8c-0.4,0.9-1,1.6-1.7,2.3l0,0l0,0c0,0,0,0-0.1,0.1l-0.1,0.1c-4.4,4.3-10.9,5.2-16.1,2.7 c-1.4-0.7-2.7-1.6-3.9-2.8c-5.5-5.5-5.5-14.4-0.1-20c-1.3,1.3-2.4,2.9-3.3,4.6c-4.8,9.3-1.1,20.7,8.2,25.5 c7.4,3.8,16.2,2.2,21.8-3.3c0,0,0,0,0.1-0.1l0.1-0.1l0,0l0.1-0.1c0,0,0,0,0-0.1C78.1,44.7,78,35.9,72.6,30.4z"></path> <linearGradient id="SVGID_2_" gradientUnits="userSpaceOnUse" x1="33.6651" y1="6.8526" x2="52.3009" y2="25.4885" gradientTransform="matrix(1 0 0 -1 0 56)"> <stop offset="0" style="stop-color:#009DAB;stop-opacity:0"></stop> <stop offset="1" style="stop-color:#206C75"></stop> </linearGradient> <path class="st3" d="M52.4,30.4C52.5,30.4,52.5,30.4,52.4,30.4C52.5,30.4,52.5,30.4,52.4,30.4C52.5,30.4,52.4,30.4,52.4,30.4z"></path> <linearGradient id="SVGID_3_" gradientUnits="userSpaceOnUse" x1="75.8929" y1="36.1979" x2="60.8531" y2="20.6365" gradientTransform="matrix(1 0 0 -1 0 56)"> <stop offset="0" style="stop-color:#69CDCF;stop-opacity:0"></stop> <stop offset="1" style="stop-color:#009EA5"></stop> </linearGradient> <path class="st4" d="M67.8,20.3c-7.4-3.8-16.2-2.2-21.9,3.3c0,0,0,0-0.1,0.1c0,0,0,0-0.1,0.1l-0.1,0.1l0,0 c-5.4,5.6-5.4,14.4,0.1,20c1.2,1.2,2.5,2.1,3.9,2.8c5.3,2.5,11.8,1.6,16.2-2.7c-2.8,2.8-7.3,3.6-11,1.7c-4.7-2.4-6.5-8.1-4.1-12.8 c0.5-0.9,1-1.7,1.7-2.4c0,0,0,0,0.1-0.1c4.4-4.3,10.9-5.3,16.2-2.7c1.4,0.7,2.7,1.6,3.9,2.8c5.5,5.5,5.5,14.4,0.1,19.9 c1.3-1.3,2.4-2.9,3.3-4.6C80.8,36.4,77.1,25.1,67.8,20.3z"></path> <linearGradient id="SVGID_4_" gradientUnits="userSpaceOnUse" x1="85.6457" y1="19.0628" x2="63.0113" y2="-4.3566" gradientTransform="matrix(1 0 0 -1 0 56)"> <stop offset="0" style="stop-color:#009DAB;stop-opacity:0"></stop> <stop offset="1" style="stop-color:#206C75"></stop> </linearGradient> <path class="st5" d="M72.6,50.5L72.6,50.5C72.5,50.5,72.5,50.5,72.6,50.5C72.5,50.5,72.5,50.5,72.6,50.5z"></path> </g> </g> </svg> 